%TF.GenerationSoftware,KiCad,Pcbnew,9.0.7*%
%TF.CreationDate,2026-06-26T22:54:40-04:00*%
%TF.ProjectId,6034_template,36303334-5f74-4656-9d70-6c6174652e6b,rev?*%
%TF.SameCoordinates,PX7102eecPY745a090*%
%TF.FileFunction,Copper,L2,Bot*%
%TF.FilePolarity,Positive*%
%FSLAX46Y46*%
G04 Gerber Fmt 4.6, Leading zero omitted, Abs format (unit mm)*
G04 Created by KiCad (PCBNEW 9.0.7) date 2026-06-26 22:54:40*
%MOMM*%
%LPD*%
G01*
G04 APERTURE LIST*
%TA.AperFunction,ViaPad*%
%ADD10C,1.000000*%
%TD*%
%TA.AperFunction,ViaPad*%
%ADD11C,3.500000*%
%TD*%
G04 APERTURE END LIST*
D10*
%TO.N,GND*%
X4000000Y14000000D03*
X16000000Y30000000D03*
X22000000Y4000000D03*
X44000000Y30000000D03*
X46000000Y18000000D03*
X56000000Y18000000D03*
X44000000Y18000000D03*
X28000000Y4000000D03*
X20000000Y4000000D03*
X18000000Y18000000D03*
X56000000Y6000000D03*
X14000000Y4000000D03*
X16000000Y20000000D03*
D11*
X50000000Y2750000D03*
D10*
X56000000Y10000000D03*
X4000000Y16000000D03*
X14000000Y18000000D03*
X24000000Y4000000D03*
X34000000Y4000000D03*
X56000000Y16000000D03*
X38000000Y4000000D03*
X46000000Y16000000D03*
X4000000Y24000000D03*
X28000000Y30000000D03*
D11*
X10000000Y31250000D03*
D10*
X4000000Y20000000D03*
D11*
X10000000Y2750000D03*
D10*
X16000000Y16000000D03*
X36000000Y4000000D03*
X56000000Y26000000D03*
X4000000Y4000000D03*
X26000000Y4000000D03*
X40000000Y4000000D03*
X4000000Y26000000D03*
X56000000Y12000000D03*
X16000000Y18000000D03*
X56000000Y20000000D03*
X24000000Y30000000D03*
X56000000Y8000000D03*
X32000000Y4000000D03*
X26000000Y30000000D03*
D11*
X50000000Y31250000D03*
D10*
X54000000Y4000000D03*
X44000000Y14000000D03*
X30000000Y30000000D03*
X18000000Y30000000D03*
X56000000Y4000000D03*
X4000000Y28000000D03*
X4000000Y30000000D03*
X4000000Y12000000D03*
X42000000Y18000000D03*
X46000000Y4000000D03*
X4000000Y18000000D03*
X18000000Y16000000D03*
X44000000Y20000000D03*
X4000000Y6000000D03*
X56000000Y30000000D03*
X44000000Y4000000D03*
X56000000Y28000000D03*
X44000000Y16000000D03*
X16000000Y4000000D03*
X6000000Y30000000D03*
X56000000Y24000000D03*
X18000000Y4000000D03*
X14000000Y30000000D03*
X40000000Y30000000D03*
X22000000Y30000000D03*
X4000000Y8000000D03*
X32000000Y30000000D03*
X6000000Y4000000D03*
X42000000Y16000000D03*
X16000000Y14000000D03*
X42000000Y4000000D03*
X4000000Y10000000D03*
X20000000Y30000000D03*
X4000000Y22000000D03*
X36000000Y30000000D03*
X56000000Y14000000D03*
X56000000Y22000000D03*
X38000000Y30000000D03*
X46000000Y30000000D03*
X34000000Y30000000D03*
X54000000Y30000000D03*
X42000000Y30000000D03*
X14000000Y16000000D03*
X30000000Y4000000D03*
%TD*%
%TA.AperFunction,Conductor*%
%TO.N,GND*%
G36*
X59441939Y33479815D02*
G01*
X59487694Y33427011D01*
X59498900Y33375500D01*
X59498900Y627600D01*
X59479215Y560561D01*
X59426411Y514806D01*
X59374900Y503600D01*
X624500Y503600D01*
X557461Y523285D01*
X511706Y576089D01*
X500500Y627600D01*
X500500Y33375500D01*
X520185Y33442539D01*
X572989Y33488294D01*
X624500Y33499500D01*
X59374900Y33499500D01*
X59441939Y33479815D01*
G37*
%TD.AperFunction*%
%TD*%
M02*
