M48
; DRILL file {KiCad 9.0.7} date 2026-06-26T22:54:46-0400
; FORMAT={-:-/ absolute / metric / decimal}
; #@! TF.CreationDate,2026-06-26T22:54:46-04:00
; #@! TF.GenerationSoftware,Kicad,Pcbnew,9.0.7
; #@! TF.FileFunction,Plated,1,2,PTH
FMAT,2
METRIC
; #@! TA.AperFunction,Plated,PTH,ViaDrill
T1C0.200
; #@! TA.AperFunction,Plated,PTH,ViaDrill
T2C2.500
%
G90
G05
T1
X4.0Y30.0
X4.0Y28.0
X4.0Y26.0
X4.0Y24.0
X4.0Y22.0
X4.0Y20.0
X4.0Y18.0
X4.0Y16.0
X4.0Y14.0
X4.0Y12.0
X4.0Y10.0
X4.0Y8.0
X4.0Y6.0
X4.0Y4.0
X6.0Y30.0
X6.0Y4.0
X14.0Y30.0
X14.0Y18.0
X14.0Y16.0
X14.0Y4.0
X16.0Y30.0
X16.0Y20.0
X16.0Y18.0
X16.0Y16.0
X16.0Y14.0
X16.0Y4.0
X18.0Y30.0
X18.0Y18.0
X18.0Y16.0
X18.0Y4.0
X20.0Y30.0
X20.0Y4.0
X22.0Y30.0
X22.0Y4.0
X24.0Y30.0
X24.0Y4.0
X26.0Y30.0
X26.0Y4.0
X28.0Y30.0
X28.0Y4.0
X30.0Y30.0
X30.0Y4.0
X32.0Y30.0
X32.0Y4.0
X34.0Y30.0
X34.0Y4.0
X36.0Y30.0
X36.0Y4.0
X38.0Y30.0
X38.0Y4.0
X40.0Y30.0
X40.0Y4.0
X42.0Y30.0
X42.0Y18.0
X42.0Y16.0
X42.0Y4.0
X44.0Y30.0
X44.0Y20.0
X44.0Y18.0
X44.0Y16.0
X44.0Y14.0
X44.0Y4.0
X46.0Y30.0
X46.0Y18.0
X46.0Y16.0
X46.0Y4.0
X54.0Y30.0
X54.0Y4.0
X56.0Y30.0
X56.0Y28.0
X56.0Y26.0
X56.0Y24.0
X56.0Y22.0
X56.0Y20.0
X56.0Y18.0
X56.0Y16.0
X56.0Y14.0
X56.0Y12.0
X56.0Y10.0
X56.0Y8.0
X56.0Y6.0
X56.0Y4.0
T2
X10.0Y31.25
X10.0Y2.75
X50.0Y31.25
X50.0Y2.75
M30
