M48
; DRILL file KiCad 10.0.4 date 2026-07-06T00:41:31
; FORMAT={-:-/ absolute / metric / decimal}
; #@! TF.CreationDate,2026-07-06T00:41:31-04:00
; #@! TF.GenerationSoftware,Kicad,Pcbnew,10.0.4
; #@! TF.FileFunction,Plated,1,2,PTH
FMAT,2
METRIC
; #@! TA.AperFunction,Plated,PTH,ViaDrill
T1C0.200
; #@! TA.AperFunction,Plated,PTH,ComponentDrill
T2C1.000
%
G90
G05
T1
X1.6Y26.42
X1.6Y4.2
X3.6Y26.42
X3.6Y4.2
X5.6Y26.42
X5.6Y4.2
X7.6Y26.42
X7.6Y4.2
X9.6Y26.42
X9.6Y4.2
X11.6Y26.42
X11.6Y4.2
X12.4Y15.3
X13.6Y26.42
X13.6Y4.2
X14.4Y17.3
X14.4Y15.3
X14.4Y13.3
X15.6Y26.42
X15.6Y4.2
X16.4Y15.3
X17.6Y26.42
X17.6Y4.2
X19.6Y26.42
X19.6Y4.2
X21.6Y26.42
X21.6Y4.2
X23.6Y26.42
X23.6Y4.2
X25.6Y26.42
X25.6Y4.2
X26.8Y15.3
X27.6Y26.42
X27.6Y4.2
X28.8Y17.3
X28.8Y15.3
X28.8Y13.3
X29.6Y26.42
X29.6Y4.2
X30.8Y15.3
X31.6Y26.42
X31.6Y4.2
X33.6Y26.42
X33.6Y4.2
X35.6Y26.42
X35.6Y4.2
X37.6Y26.42
X37.6Y4.2
X39.6Y26.42
X39.6Y4.2
X41.6Y26.42
X41.6Y4.2
T2
X1.27Y29.21
X1.27Y1.27
X3.81Y29.21
X3.81Y1.27
X6.35Y29.21
X6.35Y1.27
X8.89Y29.21
X8.89Y1.27
X11.43Y29.21
X11.43Y1.27
X13.97Y29.21
X13.97Y1.27
X16.51Y29.21
X16.51Y1.27
X19.05Y29.21
X19.05Y1.27
X21.59Y29.21
X21.59Y1.27
X24.13Y29.21
X24.13Y1.27
X26.67Y29.21
X26.67Y1.27
X29.21Y29.21
X29.21Y1.27
X31.75Y29.21
X31.75Y1.27
X34.29Y29.21
X34.29Y1.27
X36.83Y29.21
X36.83Y1.27
X39.37Y29.21
X39.37Y1.27
X41.91Y29.21
X41.91Y1.27
M30
